<mxfile host="app.diagrams.net" agent="Mozilla/5.0 (Windows NT 10.0; Win64; x64) AppleWebKit/537.36 (KHTML, like Gecko) Chrome/137.0.0.0 Safari/537.36" version="26.2.13">
  <diagram name="Page-1" id="929967ad-93f9-6ef4-fab6-5d389245f69c">
    <mxGraphModel dx="1228" dy="8160" grid="1" gridSize="10" guides="1" tooltips="1" connect="1" arrows="1" fold="1" page="1" pageScale="1.5" pageWidth="5000" pageHeight="5000" background="none" math="0" shadow="0">
      <root>
        <mxCell id="0" style=";html=1;" />
        <mxCell id="1" style=";html=1;" parent="0" />
        <mxCell id="2MlAylyEcwporMk0KTei-3" value="&lt;h1 style=&quot;margin-top: 0px; margin-bottom: 0px;&quot;&gt;&lt;br&gt;&lt;/h1&gt;&lt;div&gt;&lt;/div&gt;" style="rounded=0;whiteSpace=wrap;html=1;" vertex="1" parent="1">
          <mxGeometry x="560" y="-460" width="670" height="970" as="geometry" />
        </mxCell>
        <mxCell id="2MlAylyEcwporMk0KTei-4" value="&lt;font style=&quot;font-size: 30px;&quot;&gt;Caixa&lt;/font&gt;" style="shape=umlActor;verticalLabelPosition=bottom;verticalAlign=top;html=1;outlineConnect=0;" vertex="1" parent="1">
          <mxGeometry x="400" y="-97.5" width="90" height="165" as="geometry" />
        </mxCell>
        <mxCell id="2MlAylyEcwporMk0KTei-5" value="Sistema Rotisserie" style="text;html=1;align=center;verticalAlign=middle;whiteSpace=wrap;rounded=0;fontSize=28;" vertex="1" parent="1">
          <mxGeometry x="560" y="-440" width="670" height="30" as="geometry" />
        </mxCell>
        <mxCell id="2MlAylyEcwporMk0KTei-6" value="Manter Motoboy" style="ellipse;whiteSpace=wrap;html=1;" vertex="1" parent="1">
          <mxGeometry x="610" y="-85" width="120" height="80" as="geometry" />
        </mxCell>
        <mxCell id="2MlAylyEcwporMk0KTei-7" value="Manter Bairro" style="ellipse;whiteSpace=wrap;html=1;" vertex="1" parent="1">
          <mxGeometry x="610" y="-185" width="120" height="80" as="geometry" />
        </mxCell>
        <mxCell id="2MlAylyEcwporMk0KTei-8" value="Manter Mensalista" style="ellipse;whiteSpace=wrap;html=1;" vertex="1" parent="1">
          <mxGeometry x="610" y="110" width="120" height="80" as="geometry" />
        </mxCell>
        <mxCell id="2MlAylyEcwporMk0KTei-9" value="Manter Produto" style="ellipse;whiteSpace=wrap;html=1;" vertex="1" parent="1">
          <mxGeometry x="610" y="12.5" width="120" height="80" as="geometry" />
        </mxCell>
        <mxCell id="2MlAylyEcwporMk0KTei-11" value="Fazer Pedido" style="ellipse;whiteSpace=wrap;html=1;" vertex="1" parent="1">
          <mxGeometry x="610" y="-280" width="120" height="80" as="geometry" />
        </mxCell>
        <mxCell id="2MlAylyEcwporMk0KTei-13" value="Fechar Diária" style="ellipse;whiteSpace=wrap;html=1;" vertex="1" parent="1">
          <mxGeometry x="610" y="370" width="120" height="80" as="geometry" />
        </mxCell>
        <mxCell id="2MlAylyEcwporMk0KTei-14" value="Definir Cardápio" style="ellipse;whiteSpace=wrap;html=1;" vertex="1" parent="1">
          <mxGeometry x="610" y="-380" width="120" height="80" as="geometry" />
        </mxCell>
        <mxCell id="2MlAylyEcwporMk0KTei-16" value="Definir Principais, Misturas e Guarnições" style="ellipse;whiteSpace=wrap;html=1;fontSize=10;" vertex="1" parent="1">
          <mxGeometry x="860" y="-400" width="120" height="70" as="geometry" />
        </mxCell>
        <mxCell id="2MlAylyEcwporMk0KTei-18" value="" style="endArrow=none;html=1;rounded=0;entryX=1;entryY=0.3333333333333333;entryDx=0;entryDy=0;entryPerimeter=0;exitX=0;exitY=0.5;exitDx=0;exitDy=0;" edge="1" parent="1" source="2MlAylyEcwporMk0KTei-14" target="2MlAylyEcwporMk0KTei-4">
          <mxGeometry width="50" height="50" relative="1" as="geometry">
            <mxPoint x="860" y="-40" as="sourcePoint" />
            <mxPoint x="910" y="-90" as="targetPoint" />
          </mxGeometry>
        </mxCell>
        <mxCell id="2MlAylyEcwporMk0KTei-20" value="" style="endArrow=none;html=1;rounded=0;entryX=1;entryY=0.3333333333333333;entryDx=0;entryDy=0;entryPerimeter=0;exitX=0;exitY=0.5;exitDx=0;exitDy=0;" edge="1" parent="1" source="2MlAylyEcwporMk0KTei-11" target="2MlAylyEcwporMk0KTei-4">
          <mxGeometry width="50" height="50" relative="1" as="geometry">
            <mxPoint x="630" y="-320" as="sourcePoint" />
            <mxPoint x="510" y="-22" as="targetPoint" />
          </mxGeometry>
        </mxCell>
        <mxCell id="2MlAylyEcwporMk0KTei-21" value="" style="endArrow=none;html=1;rounded=0;entryX=1;entryY=0.3333333333333333;entryDx=0;entryDy=0;entryPerimeter=0;exitX=0;exitY=0.5;exitDx=0;exitDy=0;" edge="1" parent="1" source="2MlAylyEcwporMk0KTei-7" target="2MlAylyEcwporMk0KTei-4">
          <mxGeometry width="50" height="50" relative="1" as="geometry">
            <mxPoint x="640" y="-310" as="sourcePoint" />
            <mxPoint x="520" y="-12" as="targetPoint" />
          </mxGeometry>
        </mxCell>
        <mxCell id="2MlAylyEcwporMk0KTei-22" value="" style="endArrow=none;html=1;rounded=0;entryX=1;entryY=0.3333333333333333;entryDx=0;entryDy=0;entryPerimeter=0;exitX=0;exitY=0.5;exitDx=0;exitDy=0;" edge="1" parent="1" source="2MlAylyEcwporMk0KTei-6" target="2MlAylyEcwporMk0KTei-4">
          <mxGeometry width="50" height="50" relative="1" as="geometry">
            <mxPoint x="650" y="-300" as="sourcePoint" />
            <mxPoint x="530" y="-2" as="targetPoint" />
          </mxGeometry>
        </mxCell>
        <mxCell id="2MlAylyEcwporMk0KTei-23" value="" style="endArrow=none;html=1;rounded=0;entryX=1;entryY=0.3333333333333333;entryDx=0;entryDy=0;entryPerimeter=0;exitX=0;exitY=0.5;exitDx=0;exitDy=0;" edge="1" parent="1" source="2MlAylyEcwporMk0KTei-9" target="2MlAylyEcwporMk0KTei-4">
          <mxGeometry width="50" height="50" relative="1" as="geometry">
            <mxPoint x="660" y="-290" as="sourcePoint" />
            <mxPoint x="540" y="8" as="targetPoint" />
          </mxGeometry>
        </mxCell>
        <mxCell id="2MlAylyEcwporMk0KTei-24" value="" style="endArrow=none;html=1;rounded=0;entryX=1;entryY=0.3333333333333333;entryDx=0;entryDy=0;entryPerimeter=0;exitX=0;exitY=0.5;exitDx=0;exitDy=0;" edge="1" parent="1" source="2MlAylyEcwporMk0KTei-8" target="2MlAylyEcwporMk0KTei-4">
          <mxGeometry width="50" height="50" relative="1" as="geometry">
            <mxPoint x="670" y="-280" as="sourcePoint" />
            <mxPoint x="550" y="18" as="targetPoint" />
          </mxGeometry>
        </mxCell>
        <mxCell id="2MlAylyEcwporMk0KTei-25" value="" style="endArrow=none;html=1;rounded=0;exitX=0;exitY=0.5;exitDx=0;exitDy=0;" edge="1" parent="1" source="2MlAylyEcwporMk0KTei-13">
          <mxGeometry width="50" height="50" relative="1" as="geometry">
            <mxPoint x="680" y="-270" as="sourcePoint" />
            <mxPoint x="490" y="-40" as="targetPoint" />
          </mxGeometry>
        </mxCell>
        <mxCell id="2MlAylyEcwporMk0KTei-26" value="&amp;lt;&amp;lt;extends&lt;span style=&quot;background-color: light-dark(#ffffff, var(--ge-dark-color, #121212)); color: light-dark(rgb(0, 0, 0), rgb(255, 255, 255));&quot;&gt;&amp;gt;&amp;gt;&lt;/span&gt;" style="endArrow=block;dashed=1;endFill=0;endSize=12;html=1;rounded=0;entryX=1;entryY=0.5;entryDx=0;entryDy=0;exitX=0;exitY=0.5;exitDx=0;exitDy=0;" edge="1" parent="1" source="2MlAylyEcwporMk0KTei-16" target="2MlAylyEcwporMk0KTei-14">
          <mxGeometry width="160" relative="1" as="geometry">
            <mxPoint x="800" y="-70" as="sourcePoint" />
            <mxPoint x="960" y="-70" as="targetPoint" />
          </mxGeometry>
        </mxCell>
        <mxCell id="2MlAylyEcwporMk0KTei-27" value="&amp;lt;&amp;lt;include&lt;span style=&quot;background-color: light-dark(#ffffff, var(--ge-dark-color, #121212)); color: light-dark(rgb(0, 0, 0), rgb(255, 255, 255));&quot;&gt;&amp;gt;&amp;gt;&lt;/span&gt;" style="endArrow=block;dashed=1;endFill=0;endSize=12;html=1;rounded=0;entryX=1;entryY=1;entryDx=0;entryDy=0;exitX=0;exitY=0.5;exitDx=0;exitDy=0;" edge="1" parent="1" source="2MlAylyEcwporMk0KTei-28" target="2MlAylyEcwporMk0KTei-14">
          <mxGeometry width="160" relative="1" as="geometry">
            <mxPoint x="870" y="-355" as="sourcePoint" />
            <mxPoint x="740" y="-330" as="targetPoint" />
          </mxGeometry>
        </mxCell>
        <mxCell id="2MlAylyEcwporMk0KTei-28" value="Atualizar Cardápio" style="ellipse;whiteSpace=wrap;html=1;fontSize=10;" vertex="1" parent="1">
          <mxGeometry x="860" y="-320" width="120" height="70" as="geometry" />
        </mxCell>
        <mxCell id="2MlAylyEcwporMk0KTei-29" value="&amp;lt;&amp;lt;extends&lt;span style=&quot;background-color: light-dark(#ffffff, var(--ge-dark-color, #121212)); color: light-dark(rgb(0, 0, 0), rgb(255, 255, 255));&quot;&gt;&amp;gt;&amp;gt;&lt;/span&gt;" style="endArrow=block;dashed=1;endFill=0;endSize=12;html=1;rounded=0;entryX=1;entryY=0.5;entryDx=0;entryDy=0;exitX=0;exitY=0.5;exitDx=0;exitDy=0;" edge="1" parent="1" source="2MlAylyEcwporMk0KTei-30" target="2MlAylyEcwporMk0KTei-13">
          <mxGeometry width="160" relative="1" as="geometry">
            <mxPoint x="888" y="317" as="sourcePoint" />
            <mxPoint x="740" y="290" as="targetPoint" />
          </mxGeometry>
        </mxCell>
        <mxCell id="2MlAylyEcwporMk0KTei-30" value="Adicionar acréscimos ou descontos" style="ellipse;whiteSpace=wrap;html=1;fontSize=10;" vertex="1" parent="1">
          <mxGeometry x="830" y="350" width="120" height="70" as="geometry" />
        </mxCell>
        <mxCell id="2MlAylyEcwporMk0KTei-32" value="Selecionar Motoboy" style="ellipse;whiteSpace=wrap;html=1;fontSize=10;" vertex="1" parent="1">
          <mxGeometry x="790" y="280" width="120" height="70" as="geometry" />
        </mxCell>
        <mxCell id="2MlAylyEcwporMk0KTei-33" value="&amp;lt;&amp;lt;extends&lt;span style=&quot;background-color: light-dark(#ffffff, var(--ge-dark-color, #121212)); color: light-dark(rgb(0, 0, 0), rgb(255, 255, 255));&quot;&gt;&amp;gt;&amp;gt;&lt;/span&gt;" style="endArrow=block;dashed=1;endFill=0;endSize=12;html=1;rounded=0;entryX=1;entryY=0;entryDx=0;entryDy=0;exitX=0;exitY=0.5;exitDx=0;exitDy=0;" edge="1" parent="1" source="2MlAylyEcwporMk0KTei-32" target="2MlAylyEcwporMk0KTei-13">
          <mxGeometry width="160" relative="1" as="geometry">
            <mxPoint x="860" y="350" as="sourcePoint" />
            <mxPoint x="740" y="350" as="targetPoint" />
          </mxGeometry>
        </mxCell>
        <mxCell id="2MlAylyEcwporMk0KTei-34" value="Imprimir Diária" style="ellipse;whiteSpace=wrap;html=1;fontSize=10;" vertex="1" parent="1">
          <mxGeometry x="830" y="425" width="120" height="70" as="geometry" />
        </mxCell>
        <mxCell id="2MlAylyEcwporMk0KTei-35" value="&amp;lt;&amp;lt;extends&lt;span style=&quot;background-color: light-dark(#ffffff, var(--ge-dark-color, #121212)); color: light-dark(rgb(0, 0, 0), rgb(255, 255, 255));&quot;&gt;&amp;gt;&amp;gt;&lt;/span&gt;" style="endArrow=block;dashed=1;endFill=0;endSize=12;html=1;rounded=0;entryX=1;entryY=1;entryDx=0;entryDy=0;exitX=0;exitY=0.5;exitDx=0;exitDy=0;" edge="1" parent="1" source="2MlAylyEcwporMk0KTei-34" target="2MlAylyEcwporMk0KTei-13">
          <mxGeometry width="160" relative="1" as="geometry">
            <mxPoint x="840" y="390" as="sourcePoint" />
            <mxPoint x="720" y="390" as="targetPoint" />
            <Array as="points" />
          </mxGeometry>
        </mxCell>
      </root>
    </mxGraphModel>
  </diagram>
</mxfile>
